PathFileType	4	(X/Y/Z)	T1_P1_Vision_Movement_4_0-662.trc
DataRate	CameraRate	NumFrames	NumMarkers	Units	OrigDataRate	OrigDataStartFrame	OrigNumFrames
60	60	7	27	m	60	413	662
Frame#	Time	RHip			RKnee			RAnkle			RBigToe			RSmallToe			RHeel			LHip			LKnee			LAnkle			LBigToe			LSmallToe			LHeel			Neck			Head			Nose			RShoulder			RElbow			RWrist			RThumb			RIndex			RPinky			LShoulder			LElbow			LWrist			LThumb			LIndex			LPinky		
		X1	Y1	Z1	X2	Y2	Z2	X3	Y3	Z3	X4	Y4	Z4	X5	Y5	Z5	X6	Y6	Z6	X7	Y7	Z7	X8	Y8	Z8	X9	Y9	Z9	X10	Y10	Z10	X11	Y11	Z11	X12	Y12	Z12	X13	Y13	Z13	X14	Y14	Z14	X15	Y15	Z15	X16	Y16	Z16	X17	Y17	Z17	X18	Y18	Z18	X19	Y19	Z19	X20	Y20	Z20	X21	Y21	Z21	X22	Y22	Z22	X23	Y23	Z23	X24	Y24	Z24	X25	Y25	Z25	X26	Y26	Z26	X27	Y27	Z27
414	6.9	-136.7317487646064	3948.6310837598585	-653.6153091240013	241.92192061342308	4108.38602940024	-669.9705409628267	592.7825782907569	4258.013570804091	-681.3348490513466	688.8533264397778	4203.935909351956	-651.1852244034893	673.2108543953929	4168.861629002939	-693.4797998984963	638.8460591581409	4313.118387587439	-695.4971669254769	-152.98369787126313	4067.8648646284832	-505.3656591911529	203.42849156647713	4161.724745679315	-496.11358636023436	554.384683787048	4335.498424898275	-515.3283082924407	631.5254323721578	4215.507729447449	-400.9726479242556	608.9987811747218	4277.210615531214	-378.2916182247269	606.9229778226565	4375.657881071167	-538.3571033889056	-726.2318037853345	3870.6458862335953	-585.6557097156852	-951.6774461674562	3708.189934167399	-474.0985646424454	-800.7460021152373	3746.968053960442	-465.967365634665	-625.8289942651196	3784.4390878990794	-697.8396326764753	-498.2304029803885	3654.7179788902076	-802.1018738637914	-678.1693543548303	3521.721393037609	-666.6292274249714	-804.3482607350426	3600.2929744018697	-672.3732871824496	-805.4842634145883	3580.0571148063354	-656.1219846317134	-784.7932325307823	3537.3680758077553	-668.6078264780903	-664.0014716132546	3992.875735846829	-465.9188077244851	-414.46118421220655	4095.9577681036767	-418.0903524975602	-158.2509100393929	4124.728936919544	-371.2127467227916	-34.19055530119035	4137.5782471666425	-376.30727461721415	10.940299320662652	4143.734830544659	-360.008712489332	-21.0303722206657	4156.50674066364	-335.74338090922066
415	6.916666666666667	-136.6569084997478	3948.6373217265595	-653.6961937208682	242.06419752111574	4108.442476500231	-670.2849092514801	592.6720555441082	4257.7956865808155	-681.2485992100732	688.8999688397106	4204.08716689631	-651.2341562908491	679.7346309711188	4161.790802208361	-700.6130336716891	638.6143785579851	4313.804709307756	-695.6726521154046	-147.9224078480332	4068.2474250844316	-505.0737697769224	209.72446757587005	4191.760159423061	-501.91405437832293	559.3452223068687	4334.673497940908	-514.4214589438724	636.0041591551768	4246.71146552	-407.13265464434363	608.8549742760737	4277.48369864999	-378.3710457766904	606.6751229227493	4375.00180389011	-538.1491261468954	-723.3214345097095	3851.0870644403713	-570.667996795397	-951.746412244201	3708.4660528092013	-474.2055865306034	-800.7301506681724	3747.2034011334827	-466.0991732326554	-625.6013040113468	3784.9229775998556	-704.0412400696017	-496.85187540843464	3638.6247955183144	-787.3669313337894	-678.137380473755	3521.692633374022	-666.6499676062257	-804.3070956595024	3600.264275297699	-672.4132044261188	-805.3791166167064	3579.98888490811	-656.147470294893	-784.7823344637703	3537.291512293769	-668.5260873463744	-663.9715778764419	3992.7438139244623	-465.8415191047132	-414.2679075655317	4096.0928341980625	-418.14888958716784	-147.4399009281689	4128.058452637608	-370.569884768	-22.842697996006752	4145.295892094481	-377.4879960104366	10.340371806704638	4142.646523611886	-353.569694417567	-20.73371414876717	4156.640949275021	-335.8822246853972
416	6.933333333333334	-136.65531748053027	3949.9936004787137	-655.6778927662206	239.348137636751	4086.462717104585	-653.838774414728	599.1540689525824	4262.865194927349	-683.8475412414559	684.2519087787291	4172.125262867263	-643.579564859412	673.1724814851632	4157.653384324583	-700.5212310125497	645.2364891834968	4317.678963458249	-697.3751994309303	-152.98483901283177	4067.870833784785	-505.37439070595855	209.8537021278369	4165.696262497784	-497.9266607292045	554.6903403499426	4335.713982536017	-515.270902277019	631.8966324323887	4216.327600826047	-401.35305820176325	616.2353457674759	4282.833378455846	-380.81506141662015	607.1959488694235	4375.9572512527975	-538.3194904967523	-726.2700018741704	3870.766914393	-585.8369982343843	-951.5923493979201	3708.1587214848137	-474.2586640258119	-800.7055155616914	3747.190675949333	-466.2020192376441	-625.6371258706503	3785.1394576995763	-704.2189780406184	-498.3870578152221	3657.0428150797443	-803.8108500139074	-678.2427300818906	3521.7939378422952	-666.7075957996302	-804.2563142495788	3599.968332816938	-672.2387838688187	-805.3488482154055	3579.6558610544707	-656.0282336572026	-779.9379437474075	3512.9713407994645	-661.4715580765406	-659.2384005030675	3993.9735421272326	-465.8793791393288	-409.6624901957752	4099.78395110051	-419.5929567834947	-152.1777260691818	4129.457912312456	-373.1619035589261	-27.965871432249134	4116.461978716006	-373.5707229238637	12.458393813377945	4164.239893862754	-373.86303794815376	-14.789445862520768	4160.62115368575	-337.7474889192737
417	6.95	-136.5056485295424	3950.3909581146536	-655.8212172925157	233.4857745428157	4083.6732410794402	-654.0926717954844	592.8325720173026	4258.007154623923	-681.2467739108372	683.592253411849	4170.712399786268	-642.7824592300593	668.0019753979988	4135.623234177191	-684.5639671657149	645.0296949746217	4317.963739076002	-697.4419217918465	-147.9762929397391	4068.345478752951	-505.0579271491953	214.7217928806297	4165.512517961849	-497.3666676397468	559.8451495158968	4334.999682410368	-514.4568716626837	631.9322385331559	4216.042473175868	-401.47276818580906	611.7556377771183	4250.454214484367	-374.8643172449288	607.7615484862146	4376.1861283789085	-538.3925402902712	-726.2424456407992	3870.7889629939527	-585.7574082396018	-951.6150530462332	3708.1369991652077	-474.2218936752508	-795.7933558385809	3748.217002927505	-466.0198527551991	-625.633799408607	3785.0669417675404	-704.1580174391084	-502.8855006576944	3653.951469479712	-802.1296259065788	-680.582310376344	3537.5279022284067	-680.472792497357	-804.24963974351	3599.8328826383167	-672.0769200448696	-805.333389573179	3579.453003764788	-655.8298080531814	-780.0442664746628	3513.2430308901066	-661.7085792605506	-659.2887169274323	3994.1101197687417	-465.8413857980682	-414.2865754784775	4096.325059337543	-418.31111139120276	-152.9351331496511	4126.0705820145395	-371.35889883026437	-22.526038443702852	4145.865687642587	-378.3862481597644	12.523928242327877	4165.123960728037	-374.014252465795	-9.962217246001922	4161.896007426805	-337.7030065510665
418	6.966666666666667	-141.9569149048695	3946.3493009317253	-654.0337245009339	233.44773229530176	4083.741342685682	-654.2955241643367	598.7798738840262	4262.061576824739	-683.4790240902954	678.0578803832922	4172.625441121638	-644.026082434711	662.1248132827313	4135.957544652371	-685.4069016761349	644.7847794760941	4317.408399384128	-697.0558970904314	-148.00553424420056	4068.1147633594564	-504.9952811502751	209.74512034603833	4165.590047345155	-497.9576851031403	554.6680548154005	4335.409778001095	-515.40968518023	636.5233818306348	4239.315983053988	-416.2442539452973	609.6326459785587	4278.49454886401	-379.136511360886	607.872098137048	4375.681390861647	-538.5171883688954	-726.2288812228004	3870.835241080379	-585.752781983009	-951.5920199034185	3708.1274780679414	-474.19687023267556	-795.8643000454067	3748.20848861763	-465.86162623337583	-625.6652495409461	3785.1073110567404	-704.1751190468557	-498.3303841792602	3654.844601837345	-802.185724382038	-680.5299955262362	3537.401337759611	-680.3657876287899	-804.43921215608	3599.8627933130547	-671.886544573149	-805.533150539251	3579.6468079723204	-655.6857302954995	-780.1702044165139	3513.381400649775	-661.7247953914061	-664.015093576875	3993.151896046977	-466.00549250832745	-409.5784335649583	4099.927792916581	-419.70284815641804	-141.51015687527513	4132.764308250731	-372.5324277013889	-22.3528230415834	4146.242723620847	-378.8042248029978	12.645341335386442	4165.41907021312	-374.2881083134987	-14.627437541822257	4161.069261252428	-338.05944690165757
419	6.983333333333333	-141.92669585077965	3946.604510984177	-654.2003810090342	234.30731358006813	4074.16335719092	-662.3050929276732	599.0288894293353	4262.559299434029	-683.7155132799653	678.0004796493471	4172.190117869293	-644.0736597081923	667.289844640718	4158.216287148633	-701.6996854197977	645.0618242619279	4317.330875449814	-697.0173176438674	-147.90032356558564	4067.9958301111496	-505.0585430132165	214.68723452261793	4165.007049535959	-497.3301273656497	548.495597761784	4331.464127777852	-515.7413765801463	636.0821250928809	4247.00946374164	-407.3656745678215	616.2271007656547	4283.078154003926	-381.0618037978339	607.2566025319962	4375.085008767743	-538.0682756191403	-726.2520684331976	3870.726946697965	-585.6854722153914	-951.5565298390085	3707.93603212511	-474.12845768725117	-795.828029687578	3747.917365045265	-465.83290174506374	-625.707671170392	3785.1802941041897	-704.1392868038231	-498.23970003126277	3654.900022143588	-802.2152741745492	-680.5199287352507	3537.483823586069	-680.4120199894644	-804.2747756251804	3599.887587027023	-672.1188058278883	-805.4303101227935	3579.6790705894814	-655.9142592497288	-780.1737791661884	3513.378453078373	-661.7288300311988	-659.2856915764008	3994.0565930901557	-465.86614660267617	-414.19430600297187	4096.303956739838	-418.28496873707354	-147.2243586735473	4128.341893503294	-370.90337737587447	-28.57321762487192	4140.75714865668	-376.37732902269204	12.638801076637145	4165.3022211903635	-374.0982665193648	-15.805734336651147	4156.98258073492	-335.9470828816169
420	7.0	-136.76680845946154	3948.589241440271	-653.751896894717	241.88212303251476	4108.1160231453405	-669.8187197940566	592.817331706746	4257.194405124074	-680.8886918332832	678.2251590518588	4172.681924088474	-644.0545708955664	674.0778133678972	4161.6986428109985	-701.1398830924434	645.0892731033566	4317.521111093297	-697.2276895961631	-148.03120555003642	4068.00249499137	-505.0222028594558	203.38194575718478	4161.409866020005	-496.05856691505363	548.3698160742036	4331.8363386513865	-515.757510221769	631.716241508186	4216.148739314404	-401.40407530256533	609.4306661625415	4278.144596740994	-378.82277741113575	607.0830302455054	4375.22688134842	-538.2196110107815	-723.3322523756912	3851.138138614183	-570.7537832934815	-951.5922753443443	3708.0128312316583	-474.1797251161767	-800.7051673486208	3746.479421692614	-465.77670403929	-625.7301447471502	3784.9966236466435	-704.081519448187	-498.33469480053395	3654.892859786113	-802.2180391091565	-680.4820528518094	3537.228352848488	-680.2743729715008	-804.3382590093689	3599.703534962049	-671.9741646719438	-805.4359288515398	3579.4561260885894	-655.7732355478873	-780.1424043306865	3513.2119384150483	-661.6892956177035	-664.0616549199441	3992.9720277337187	-466.0741493179862	-414.2656601184327	4096.433183610412	-418.3805823778733	-152.92476392317963	4125.861066467045	-371.29116445582923	-28.72642751863364	4141.91352464098	-376.36933614450516	11.219730054328693	4145.218835003259	-360.4984415863168	-16.007065800500364	4157.695533020915	-336.01887515452347
